<svg xmlns="http://www.w3.org/2000/svg" viewBox="0 0 24 24" fill="none" stroke="#B9C2E8" stroke-width="1.85" stroke-linecap="round" stroke-linejoin="round"><path d="M12 8.5a3.5 3.5 0 1 0 0 7 3.5 3.5 0 0 0 0-7Z"/><path d="M19.2 13.2a7.4 7.4 0 0 0 .1-1.2 7.4 7.4 0 0 0-.1-1.2l2-1.5-2-3.4-2.4 1a7.8 7.8 0 0 0-2-1.1L14.5 3h-5l-.4 2.8a7.8 7.8 0 0 0-2 1.1l-2.4-1-2 3.4 2 1.5a7.4 7.4 0 0 0-.1 1.2 7.4 7.4 0 0 0 .1 1.2l-2 1.5 2 3.4 2.4-1a7.8 7.8 0 0 0 2 1.1l.4 2.8h5l.4-2.8a7.8 7.8 0 0 0 2-1.1l2.4 1 2-3.4-2-1.5Z"/> </svg>